<?xml version="1.0" standalone="no"?><!DOCTYPE svg PUBLIC "-//W3C//DTD SVG 1.1//EN" "http://www.w3.org/Graphics/SVG/1.1/DTD/svg11.dtd"><svg t="1765466245920" class="icon" viewBox="0 0 1024 1024" version="1.1" xmlns="http://www.w3.org/2000/svg" p-id="4920" xmlns:xlink="http://www.w3.org/1999/xlink" width="200" height="200"><path d="M511 390.4c-83 0-150.5-67.5-150.5-150.5S428.1 89.4 511 89.4s150.5 67.5 150.5 150.5S594 390.4 511 390.4z" fill="#FFDBA0" p-id="4921"></path><path d="M511 102.5c75.9 0 137.4 61.5 137.4 137.4S586.9 377.4 511 377.4 373.6 315.9 373.6 240 435.1 102.5 511 102.5m0-26.1c-22.1 0-43.5 4.3-63.7 12.9-19.5 8.2-37 20-52 35s-26.8 32.5-35 52c-8.5 20.2-12.9 41.6-12.9 63.7s4.3 43.5 12.9 63.7c8.2 19.5 20 37 35 52s32.5 26.8 52 35c20.2 8.5 41.6 12.9 63.7 12.9s43.5-4.3 63.7-12.9c19.5-8.2 37-20 52-35s26.8-32.5 35-52c8.5-20.2 12.9-41.6 12.9-63.7s-4.3-43.5-12.9-63.7c-8.2-19.5-20-37-35-52s-32.5-26.8-52-35c-20.2-8.6-41.6-12.9-63.7-12.9z" fill="#282F63" p-id="4922"></path><path d="M511 102.5c-10.1 0-19.9 1.2-29.4 3.2 61.8 13.5 108.1 68.4 108.1 134.2 0 65.8-46.3 120.8-108.1 134.2 9.5 2.1 19.3 3.2 29.4 3.2 75.9 0 137.4-61.5 137.4-137.4 0.1-75.9-61.5-137.4-137.4-137.4z" fill="#FCC975" p-id="4923"></path><path d="M431 253c-7.2 0-13.1-5.8-13.1-13.1 0-27.3 11.9-53.2 32.8-70.9 5.5-4.7 13.7-4 18.4 1.5 4.7 5.5 4 13.7-1.5 18.4-15 12.8-23.6 31.4-23.6 51 0 7.2-5.8 13.1-13 13.1z" fill="#FFFFFF" p-id="4924"></path><path d="M373.6 784.6c-3.7 0-7.3-1.6-9.8-4.4-2.5-2.8-3.6-6.5-3.2-10.3l40.5-322.8c0.8-6.5 6.4-11.4 13-11.4H608c6.6 0 12.1 4.9 13 11.4l40.5 322.8c0.5 3.7-0.7 7.5-3.2 10.3-2.5 2.8-6 4.4-9.8 4.4H373.6z" fill="#E5F1F9" p-id="4925"></path><path d="M608 448.7l40.5 322.8H373.6l40.5-322.8H608m0-26.1H414c-13.2 0-24.3 9.8-25.9 22.9l-40.5 322.8c-0.9 7.4 1.4 14.9 6.3 20.5 5 5.6 12.1 8.8 19.6 8.8h274.9c7.5 0 14.6-3.2 19.6-8.8 5-5.6 7.3-13.1 6.3-20.5l-40.5-322.8c-1.5-13.1-12.6-22.9-25.8-22.9z" fill="#282F63" p-id="4926"></path><path d="M608 448.7h-45.7l40.5 322.9h45.7z" fill="#AAD4E9" p-id="4927"></path><path d="M319.5 848.5c-4.9 0-9.3-2.7-11.6-7-2.3-4.3-1.9-9.5 0.8-13.5l47.9-69.3c2.4-3.5 6.4-5.6 10.7-5.6h287.1c4.3 0 8.3 2.1 10.7 5.6L713 828c2.8 4 3.1 9.2 0.8 13.5-2.3 4.3-6.7 7-11.6 7H319.5z" fill="#E5F1F9" p-id="4928"></path><path d="M654.6 766.2l47.9 69.3h-383l47.9-69.3h287.2m0-26.1H367.5c-8.6 0-16.6 4.2-21.5 11.2l-47.9 69.3c-5.5 8-6.2 18.4-1.7 27 4.5 8.6 13.4 14 23.1 14h383c9.7 0 18.6-5.4 23.1-14s3.9-19-1.7-27L676 751.3c-4.8-7-12.8-11.2-21.4-11.2z" fill="#282F63" p-id="4929"></path><path d="M654.6 766.2h-52.2l47.9 69.3h52.2z" fill="#AAD4E9" p-id="4930"></path><path d="M309.5 929.5c-17.1 0-31-13.9-31-31v-45.1c0-17.1 13.9-31 31-31h403.1c17.1 0 31 13.9 31 31v45.1c0 17.1-13.9 31-31 31H309.5z" fill="#1E62A1" p-id="4931"></path><path d="M712.6 835.5c9.9 0 17.9 8 17.9 17.9v45.1c0 9.9-8 17.9-17.9 17.9H309.5c-9.9 0-17.9-8-17.9-17.9v-45.1c0-9.9 8-17.9 17.9-17.9h403.1m0-26.1H309.5c-24.3 0-44 19.8-44 44v45.1c0 24.3 19.8 44 44 44h403.1c24.3 0 44-19.8 44-44v-45.1c0-24.3-19.7-44-44-44z" fill="#282F63" p-id="4932"></path><path d="M309.5 916.5h65.3c-9.9 0-17.9-8-17.9-17.9v-45.1c0-9.9 8-17.9 17.9-17.9h-65.3c-9.9 0-17.9 8-17.9 17.9v45.1c0 9.8 8 17.9 17.9 17.9z" fill="#3381BC" p-id="4933"></path><path d="M406.8 390.4c-14 0-25.5-11.4-25.5-25.5v-6.1c0-14 11.4-25.5 25.5-25.5h208.5c14 0 25.5 11.4 25.5 25.5v6.1c0 14-11.4 25.5-25.5 25.5H406.8z" fill="#E5F1F9" p-id="4934"></path><path d="M615.3 346.5c6.9 0 12.4 5.6 12.4 12.4v6.1c0 6.9-5.6 12.4-12.4 12.4H406.8c-6.9 0-12.4-5.6-12.4-12.4v-6.1c0-6.9 5.6-12.4 12.4-12.4h208.5m0-26.1H406.8c-21.2 0-38.5 17.3-38.5 38.5v6.1c0 21.2 17.3 38.5 38.5 38.5h208.5c21.2 0 38.5-17.3 38.5-38.5v-6.1c0-21.3-17.3-38.5-38.5-38.5z" fill="#282F63" p-id="4935"></path><path d="M615.3 346.5h-52.2c6.9 0 12.4 5.6 12.4 12.4v6.1c0 6.9-5.6 12.4-12.4 12.4h52.2c6.9 0 12.4-5.6 12.4-12.4v-6.1c0-6.9-5.6-12.4-12.4-12.4z" fill="#AAD4E9" p-id="4936"></path><path d="M400.4 452.2c-17.9 0-32.4-14.5-32.4-32.4V417c0-17.9 14.5-32.4 32.4-32.4h221.2c17.9 0 32.4 14.5 32.4 32.4v2.8c0 17.9-14.5 32.4-32.4 32.4H400.4z" fill="#1E62A1" p-id="4937"></path><path d="M621.7 397.6c10.7 0 19.4 8.7 19.4 19.4v2.8c0 10.7-8.7 19.4-19.4 19.4H400.4c-10.7 0-19.4-8.7-19.4-19.4V417c0-10.7 8.7-19.4 19.4-19.4h221.3m0-26.1H400.4c-25.1 0-45.5 20.4-45.5 45.5v2.8c0 25.1 20.4 45.5 45.5 45.5h221.2c25.1 0 45.5-20.4 45.5-45.5V417c0-25.1-20.4-45.5-45.4-45.5z" fill="#282F63" p-id="4938"></path><path d="M400.4 439.1h58.7c-10.7 0-19.4-8.7-19.4-19.4V417c0-10.7 8.7-19.4 19.4-19.4h-58.7c-10.7 0-19.4 8.7-19.4 19.4v2.8c0.1 10.7 8.7 19.3 19.4 19.3z" fill="#3381BC" p-id="4939"></path><path d="M265.1 477c-4.5 0-8.2-3.7-8.2-8.2 0-7.5-5.4-14.3-12.9-15-8.5-0.8-15.7 5.9-15.7 14.2v0.8c0 4.5-3.7 8.2-8.2 8.2-7.5 0-14.3 5.4-15 12.9-0.8 8.5 5.9 15.7 14.2 15.7h0.8c4.5 0 8.2 3.7 8.2 8.2 0 7.5 5.4 14.3 12.9 15 8.5 0.8 15.7-5.9 15.7-14.2v-0.8c0-4.5 3.7-8.2 8.2-8.2h0.8c8.3 0 15-7.2 14.2-15.7-0.7-7.5-7.4-12.9-15-12.9z" fill="#9AD6E8" p-id="4940"></path><path d="M793.8 222.5c-4.5 0-8.2-3.7-8.2-8.2 0-7.5-5.4-14.3-12.9-15-8.5-0.8-15.7 5.9-15.7 14.2v0.8c0 4.5-3.7 8.2-8.2 8.2-7.5 0-14.3 5.4-15 12.9-0.8 8.5 5.9 15.7 14.2 15.7h0.8c4.5 0 8.2 3.7 8.2 8.2 0 7.5 5.4 14.3 12.9 15 8.5 0.8 15.7-5.9 15.7-14.2v-0.8c0-4.5 3.7-8.2 8.2-8.2h0.8c8.3 0 15-7.2 14.2-15.7-0.7-7.5-7.5-12.9-15-12.9z" fill="#9AD6E8" p-id="4941"></path><path d="M787.2 627.1c-4.5 0-8.2-3.7-8.2-8.2 0-7.5-5.4-14.3-12.9-15-8.5-0.8-15.7 5.9-15.7 14.2v0.8c0 4.5-3.7 8.2-8.2 8.2-7.5 0-14.3 5.4-15 12.9-0.8 8.5 5.9 15.7 14.2 15.7h0.8c4.5 0 8.2 3.7 8.2 8.2 0 7.5 5.4 14.3 12.9 15 8.5 0.8 15.7-5.9 15.7-14.2v-0.8c0-4.5 3.7-8.2 8.2-8.2h0.8c8.3 0 15-7.2 14.2-15.7-0.7-7.5-7.5-12.9-15-12.9z" fill="#9AD6E8" p-id="4942"></path></svg>